<svg id="visual" viewBox="0 0 960 540" width="960" height="540" xmlns="http://www.w3.org/2000/svg"
  xmlns:xlink="http://www.w3.org/1999/xlink" version="1.1">
  <path
    d="M0 28L26.7 28.8C53.3 29.7 106.7 31.3 160 35.8C213.3 40.3 266.7 47.7 320 50.5C373.3 53.3 426.7 51.7 480 51.7C533.3 51.7 586.7 53.3 640 51.5C693.3 49.7 746.7 44.3 800 39.8C853.3 35.3 906.7 31.7 933.3 29.8L960 28L960 0L933.3 0C906.7 0 853.3 0 800 0C746.7 0 693.3 0 640 0C586.7 0 533.3 0 480 0C426.7 0 373.3 0 320 0C266.7 0 213.3 0 160 0C106.7 0 53.3 0 26.7 0L0 0Z"
    fill="#241941"></path>
  <path
    d="M0 55L26.7 54.2C53.3 53.3 106.7 51.7 160 56.2C213.3 60.7 266.7 71.3 320 74.8C373.3 78.3 426.7 74.7 480 74.7C533.3 74.7 586.7 78.3 640 77.5C693.3 76.7 746.7 71.3 800 66C853.3 60.7 906.7 55.3 933.3 52.7L960 50L960 26L933.3 27.8C906.7 29.7 853.3 33.3 800 37.8C746.7 42.3 693.3 47.7 640 49.5C586.7 51.3 533.3 49.7 480 49.7C426.7 49.7 373.3 51.3 320 48.5C266.7 45.7 213.3 38.3 160 33.8C106.7 29.3 53.3 27.7 26.7 26.8L0 26Z"
    fill="#261a44"></path>
  <path
    d="M0 77L26.7 75.2C53.3 73.3 106.7 69.7 160 74.2C213.3 78.7 266.7 91.3 320 95.8C373.3 100.3 426.7 96.7 480 95.7C533.3 94.7 586.7 96.3 640 94.5C693.3 92.7 746.7 87.3 800 82.8C853.3 78.3 906.7 74.7 933.3 72.8L960 71L960 48L933.3 50.7C906.7 53.3 853.3 58.7 800 64C746.7 69.3 693.3 74.7 640 75.5C586.7 76.3 533.3 72.7 480 72.7C426.7 72.7 373.3 76.3 320 72.8C266.7 69.3 213.3 58.7 160 54.2C106.7 49.7 53.3 51.3 26.7 52.2L0 53Z"
    fill="#281b47"></path>
  <path
    d="M0 168L26.7 165.3C53.3 162.7 106.7 157.3 160 163.7C213.3 170 266.7 188 320 190.7C373.3 193.3 426.7 180.7 480 174.3C533.3 168 586.7 168 640 177C693.3 186 746.7 204 800 206.8C853.3 209.7 906.7 197.3 933.3 191.2L960 185L960 69L933.3 70.8C906.7 72.7 853.3 76.3 800 80.8C746.7 85.3 693.3 90.7 640 92.5C586.7 94.3 533.3 92.7 480 93.7C426.7 94.7 373.3 98.3 320 93.8C266.7 89.3 213.3 76.7 160 72.2C106.7 67.7 53.3 71.3 26.7 73.2L0 75Z"
    fill="#291c4b"></path>
  <path
    d="M0 309L26.7 306.3C53.3 303.7 106.7 298.3 160 296.5C213.3 294.7 266.7 296.3 320 299C373.3 301.7 426.7 305.3 480 302.7C533.3 300 586.7 291 640 293.7C693.3 296.3 746.7 310.7 800 308C853.3 305.3 906.7 285.7 933.3 275.8L960 266L960 183L933.3 189.2C906.7 195.3 853.3 207.7 800 204.8C746.7 202 693.3 184 640 175C586.7 166 533.3 166 480 172.3C426.7 178.7 373.3 191.3 320 188.7C266.7 186 213.3 168 160 161.7C106.7 155.3 53.3 160.7 26.7 163.3L0 166Z"
    fill="#2b1d4e"></path>
  <path
    d="M0 325L26.7 324.2C53.3 323.3 106.7 321.7 160 320.8C213.3 320 266.7 320 320 322.7C373.3 325.3 426.7 330.7 480 327.8C533.3 325 586.7 314 640 314.8C693.3 315.7 746.7 328.3 800 326.7C853.3 325 906.7 309 933.3 301L960 293L960 264L933.3 273.8C906.7 283.7 853.3 303.3 800 306C746.7 308.7 693.3 294.3 640 291.7C586.7 289 533.3 298 480 300.7C426.7 303.3 373.3 299.7 320 297C266.7 294.3 213.3 292.7 160 294.5C106.7 296.3 53.3 301.7 26.7 304.3L0 307Z"
    fill="#2d1e51"></path>
  <path
    d="M0 341L26.7 341C53.3 341 106.7 341 160 340.2C213.3 339.3 266.7 337.7 320 339.5C373.3 341.3 426.7 346.7 480 344C533.3 341.3 586.7 330.7 640 332.5C693.3 334.3 746.7 348.7 800 347.7C853.3 346.7 906.7 330.3 933.3 322.2L960 314L960 291L933.3 299C906.7 307 853.3 323 800 324.7C746.7 326.3 693.3 313.7 640 312.8C586.7 312 533.3 323 480 325.8C426.7 328.7 373.3 323.3 320 320.7C266.7 318 213.3 318 160 318.8C106.7 319.7 53.3 321.3 26.7 322.2L0 323Z"
    fill="#2f2055"></path>
  <path
    d="M0 390L26.7 392.7C53.3 395.3 106.7 400.7 160 404.2C213.3 407.7 266.7 409.3 320 408.5C373.3 407.7 426.7 404.3 480 401.7C533.3 399 586.7 397 640 398.7C693.3 400.3 746.7 405.7 800 404.8C853.3 404 906.7 397 933.3 393.5L960 390L960 312L933.3 320.2C906.7 328.3 853.3 344.7 800 345.7C746.7 346.7 693.3 332.3 640 330.5C586.7 328.7 533.3 339.3 480 342C426.7 344.7 373.3 339.3 320 337.5C266.7 335.7 213.3 337.3 160 338.2C106.7 339 53.3 339 26.7 339L0 339Z"
    fill="#312158"></path>
  <path
    d="M0 411L26.7 413.8C53.3 416.7 106.7 422.3 160 426.8C213.3 431.3 266.7 434.7 320 433.7C373.3 432.7 426.7 427.3 480 423.8C533.3 420.3 586.7 418.7 640 420.5C693.3 422.3 746.7 427.7 800 427.7C853.3 427.7 906.7 422.3 933.3 419.7L960 417L960 388L933.3 391.5C906.7 395 853.3 402 800 402.8C746.7 403.7 693.3 398.3 640 396.7C586.7 395 533.3 397 480 399.7C426.7 402.3 373.3 405.7 320 406.5C266.7 407.3 213.3 405.7 160 402.2C106.7 398.7 53.3 393.3 26.7 390.7L0 388Z"
    fill="#32225c"></path>
  <path
    d="M0 444L26.7 445.8C53.3 447.7 106.7 451.3 160 454.8C213.3 458.3 266.7 461.7 320 462.5C373.3 463.3 426.7 461.7 480 460C533.3 458.3 586.7 456.7 640 458.5C693.3 460.3 746.7 465.7 800 466.5C853.3 467.3 906.7 463.7 933.3 461.8L960 460L960 415L933.3 417.7C906.7 420.3 853.3 425.7 800 425.7C746.7 425.7 693.3 420.3 640 418.5C586.7 416.7 533.3 418.3 480 421.8C426.7 425.3 373.3 430.7 320 431.7C266.7 432.7 213.3 429.3 160 424.8C106.7 420.3 53.3 414.7 26.7 411.8L0 409Z"
    fill="#34235f"></path>
  <path
    d="M0 482L26.7 482.8C53.3 483.7 106.7 485.3 160 486.2C213.3 487 266.7 487 320 487.8C373.3 488.7 426.7 490.3 480 488.5C533.3 486.7 586.7 481.3 640 482.3C693.3 483.3 746.7 490.7 800 494.3C853.3 498 906.7 498 933.3 498L960 498L960 458L933.3 459.8C906.7 461.7 853.3 465.3 800 464.5C746.7 463.7 693.3 458.3 640 456.5C586.7 454.7 533.3 456.3 480 458C426.7 459.7 373.3 461.3 320 460.5C266.7 459.7 213.3 456.3 160 452.8C106.7 449.3 53.3 445.7 26.7 443.8L0 442Z"
    fill="#362463"></path>
  <path
    d="M0 541L26.7 541C53.3 541 106.7 541 160 541C213.3 541 266.7 541 320 541C373.3 541 426.7 541 480 541C533.3 541 586.7 541 640 541C693.3 541 746.7 541 800 541C853.3 541 906.7 541 933.3 541L960 541L960 496L933.3 496C906.7 496 853.3 496 800 492.3C746.7 488.7 693.3 481.3 640 480.3C586.7 479.3 533.3 484.7 480 486.5C426.7 488.3 373.3 486.7 320 485.8C266.7 485 213.3 485 160 484.2C106.7 483.3 53.3 481.7 26.7 480.8L0 480Z"
    fill="#382566"></path>
</svg>
