<svg id="visual" viewBox="0 0 960 540" width="960" height="540" xmlns="http://www.w3.org/2000/svg"
  xmlns:xlink="http://www.w3.org/1999/xlink" version="1.1">
  <rect x="0" y="0" width="960" height="540" fill="#1C1B1F"></rect>
  <g transform="translate(458.1821788440707 299.91254165110774)">
    <path
      d="M155.7 -258.6C198.8 -244.7 228.9 -197.1 242.8 -148.4C256.6 -99.7 254.3 -49.8 253.2 -0.7C252 48.5 252 97 230.9 133.2C209.8 169.5 167.7 193.4 125.7 200.8C83.7 208.2 41.8 199.1 2.5 194.8C-36.8 190.5 -73.7 190.9 -114.1 182.6C-154.5 174.3 -198.5 157.1 -208.2 125.2C-217.9 93.3 -193.3 46.7 -183.7 5.6C-174 -35.5 -179.2 -71 -174.5 -111.6C-169.8 -152.1 -155.2 -197.7 -124.4 -218.8C-93.7 -239.9 -46.8 -236.5 4.7 -244.6C56.2 -252.8 112.5 -272.5 155.7 -258.6"
      fill="#734bd0"></path>
  </g>
</svg>
