<svg id="visual" viewBox="0 0 960 540" width="960" height="540" xmlns="http://www.w3.org/2000/svg"
  xmlns:xlink="http://www.w3.org/1999/xlink" version="1.1">
  <path
    d="M0 28L20 28C40 28 80 28 120 26.2C160 24.3 200 20.7 240 19.8C280 19 320 21 360 22.8C400 24.7 440 26.3 480 25.3C520 24.3 560 20.7 600 18.8C640 17 680 17 720 17C760 17 800 17 840 17C880 17 920 17 940 17L960 17L960 0L940 0C920 0 880 0 840 0C800 0 760 0 720 0C680 0 640 0 600 0C560 0 520 0 480 0C440 0 400 0 360 0C320 0 280 0 240 0C200 0 160 0 120 0C80 0 40 0 20 0L0 0Z"
    fill="#34245e"></path>
  <path
    d="M0 55L20 55.8C40 56.7 80 58.3 120 54.7C160 51 200 42 240 40.3C280 38.7 320 44.3 360 48C400 51.7 440 53.3 480 52.3C520 51.3 560 47.7 600 46.8C640 46 680 48 720 47.2C760 46.3 800 42.7 840 41.7C880 40.7 920 42.3 940 43.2L960 44L960 15L940 15C920 15 880 15 840 15C800 15 760 15 720 15C680 15 640 15 600 16.8C560 18.7 520 22.3 480 23.3C440 24.3 400 22.7 360 20.8C320 19 280 17 240 17.8C200 18.7 160 22.3 120 24.2C80 26 40 26 20 26L0 26Z"
    fill="#33235b"></path>
  <path
    d="M0 120L20 129.8C40 139.7 80 159.3 120 158.3C160 157.3 200 135.7 240 132.2C280 128.7 320 143.3 360 155.2C400 167 440 176 480 174.2C520 172.3 560 159.7 600 152.3C640 145 680 143 720 144.8C760 146.7 800 152.3 840 147.8C880 143.3 920 128.7 940 121.3L960 114L960 42L940 41.2C920 40.3 880 38.7 840 39.7C800 40.7 760 44.3 720 45.2C680 46 640 44 600 44.8C560 45.7 520 49.3 480 50.3C440 51.3 400 49.7 360 46C320 42.3 280 36.7 240 38.3C200 40 160 49 120 52.7C80 56.3 40 54.7 20 53.8L0 53Z"
    fill="#312258"></path>
  <path
    d="M0 158L20 167C40 176 80 194 120 191.2C160 188.3 200 164.7 240 160.2C280 155.7 320 170.3 360 183.8C400 197.3 440 209.7 480 207.8C520 206 560 190 600 181C640 172 680 170 720 172.7C760 175.3 800 182.7 840 180C880 177.3 920 164.7 940 158.3L960 152L960 112L940 119.3C920 126.7 880 141.3 840 145.8C800 150.3 760 144.7 720 142.8C680 141 640 143 600 150.3C560 157.7 520 170.3 480 172.2C440 174 400 165 360 153.2C320 141.3 280 126.7 240 130.2C200 133.7 160 155.3 120 156.3C80 157.3 40 137.7 20 127.8L0 118Z"
    fill="#302156"></path>
  <path
    d="M0 282L20 284.7C40 287.3 80 292.7 120 291.7C160 290.7 200 283.3 240 284.2C280 285 320 294 360 302.2C400 310.3 440 317.7 480 316C520 314.3 560 303.7 600 296.5C640 289.3 680 285.7 720 284.7C760 283.7 800 285.3 840 284.3C880 283.3 920 279.7 940 277.8L960 276L960 150L940 156.3C920 162.7 880 175.3 840 178C800 180.7 760 173.3 720 170.7C680 168 640 170 600 179C560 188 520 204 480 205.8C440 207.7 400 195.3 360 181.8C320 168.3 280 153.7 240 158.2C200 162.7 160 186.3 120 189.2C80 192 40 174 20 165L0 156Z"
    fill="#2e2053"></path>
  <path
    d="M0 330L20 331C40 332 80 334 120 334C160 334 200 332 240 333.8C280 335.7 320 341.3 360 345C400 348.7 440 350.3 480 346.7C520 343 560 334 600 330.3C640 326.7 680 328.3 720 328.3C760 328.3 800 326.7 840 322.2C880 317.7 920 310.3 940 306.7L960 303L960 274L940 275.8C920 277.7 880 281.3 840 282.3C800 283.3 760 281.7 720 282.7C680 283.7 640 287.3 600 294.5C560 301.7 520 312.3 480 314C440 315.7 400 308.3 360 300.2C320 292 280 283 240 282.2C200 281.3 160 288.7 120 289.7C80 290.7 40 285.3 20 282.7L0 280Z"
    fill="#2d1f50"></path>
  <path
    d="M0 352L20 352.8C40 353.7 80 355.3 120 354.5C160 353.7 200 350.3 240 352.2C280 354 320 361 360 364.5C400 368 440 368 480 364.5C520 361 560 354 600 350.5C640 347 680 347 720 346C760 345 800 343 840 339.3C880 335.7 920 330.3 940 327.7L960 325L960 301L940 304.7C920 308.3 880 315.7 840 320.2C800 324.7 760 326.3 720 326.3C680 326.3 640 324.7 600 328.3C560 332 520 341 480 344.7C440 348.3 400 346.7 360 343C320 339.3 280 333.7 240 331.8C200 330 160 332 120 332C80 332 40 330 20 329L0 328Z"
    fill="#2b1e4e"></path>
  <path
    d="M0 401L20 400C40 399 80 397 120 396C160 395 200 395 240 397.7C280 400.3 320 405.7 360 409.3C400 413 440 415 480 415C520 415 560 413 600 410.3C640 407.7 680 404.3 720 399.8C760 395.3 800 389.7 840 385.2C880 380.7 920 377.3 940 375.7L960 374L960 323L940 325.7C920 328.3 880 333.7 840 337.3C800 341 760 343 720 344C680 345 640 345 600 348.5C560 352 520 359 480 362.5C440 366 400 366 360 362.5C320 359 280 352 240 350.2C200 348.3 160 351.7 120 352.5C80 353.3 40 351.7 20 350.8L0 350Z"
    fill="#2a1d4b"></path>
  <path
    d="M0 444L20 442.2C40 440.3 80 436.7 120 434.8C160 433 200 433 240 433C280 433 320 433 360 436.7C400 440.3 440 447.7 480 448.5C520 449.3 560 443.7 600 440C640 436.3 680 434.7 720 432C760 429.3 800 425.7 840 423C880 420.3 920 418.7 940 417.8L960 417L960 372L940 373.7C920 375.3 880 378.7 840 383.2C800 387.7 760 393.3 720 397.8C680 402.3 640 405.7 600 408.3C560 411 520 413 480 413C440 413 400 411 360 407.3C320 403.7 280 398.3 240 395.7C200 393 160 393 120 394C80 395 40 397 20 398L0 399Z"
    fill="#281c49"></path>
  <path
    d="M0 465L20 463.3C40 461.7 80 458.3 120 456.7C160 455 200 455 240 455.8C280 456.7 320 458.3 360 461C400 463.7 440 467.3 480 467.3C520 467.3 560 463.7 600 461C640 458.3 680 456.7 720 454.8C760 453 800 451 840 448.2C880 445.3 920 441.7 940 439.8L960 438L960 415L940 415.8C920 416.7 880 418.3 840 421C800 423.7 760 427.3 720 430C680 432.7 640 434.3 600 438C560 441.7 520 447.3 480 446.5C440 445.7 400 438.3 360 434.7C320 431 280 431 240 431C200 431 160 431 120 432.8C80 434.7 40 438.3 20 440.2L0 442Z"
    fill="#271b46"></path>
  <path
    d="M0 492L20 490.3C40 488.7 80 485.3 120 483.7C160 482 200 482 240 483.7C280 485.3 320 488.7 360 491.3C400 494 440 496 480 495.2C520 494.3 560 490.7 600 487C640 483.3 680 479.7 720 478.8C760 478 800 480 840 478.2C880 476.3 920 470.7 940 467.8L960 465L960 436L940 437.8C920 439.7 880 443.3 840 446.2C800 449 760 451 720 452.8C680 454.7 640 456.3 600 459C560 461.7 520 465.3 480 465.3C440 465.3 400 461.7 360 459C320 456.3 280 454.7 240 453.8C200 453 160 453 120 454.7C80 456.3 40 459.7 20 461.3L0 463Z"
    fill="#251a44"></path>
  <path
    d="M0 541L20 541C40 541 80 541 120 541C160 541 200 541 240 541C280 541 320 541 360 541C400 541 440 541 480 541C520 541 560 541 600 541C640 541 680 541 720 541C760 541 800 541 840 541C880 541 920 541 940 541L960 541L960 463L940 465.8C920 468.7 880 474.3 840 476.2C800 478 760 476 720 476.8C680 477.7 640 481.3 600 485C560 488.7 520 492.3 480 493.2C440 494 400 492 360 489.3C320 486.7 280 483.3 240 481.7C200 480 160 480 120 481.7C80 483.3 40 486.7 20 488.3L0 490Z"
    fill="#241941"></path>
</svg>
