<svg id="visual" viewBox="0 0 960 540" width="960" height="540" xmlns="http://www.w3.org/2000/svg" xmlns:xlink="http://www.w3.org/1999/xlink" version="1.1"><rect x="0" y="0" width="960" height="540" fill="#1C1B1F"></rect><path d="M0 193L14.5 189.3C29 185.7 58 178.3 87.2 170.2C116.3 162 145.7 153 174.8 153C204 153 233 162 262 163C291 164 320 157 349 155C378 153 407 156 436.2 160.3C465.3 164.7 494.7 170.3 523.8 173.5C553 176.7 582 177.3 611 179.7C640 182 669 186 698 178.8C727 171.7 756 153.3 785.2 147.7C814.3 142 843.7 149 872.8 158.7C902 168.3 931 180.7 945.5 186.8L960 193L960 541L945.5 541C931 541 902 541 872.8 541C843.7 541 814.3 541 785.2 541C756 541 727 541 698 541C669 541 640 541 611 541C582 541 553 541 523.8 541C494.7 541 465.3 541 436.2 541C407 541 378 541 349 541C320 541 291 541 262 541C233 541 204 541 174.8 541C145.7 541 116.3 541 87.2 541C58 541 29 541 14.5 541L0 541Z" fill="#7f749b"></path><path d="M0 239L14.5 231.2C29 223.3 58 207.7 87.2 197.5C116.3 187.3 145.7 182.7 174.8 180.2C204 177.7 233 177.3 262 176.3C291 175.3 320 173.7 349 172.7C378 171.7 407 171.3 436.2 180.8C465.3 190.3 494.7 209.7 523.8 213.8C553 218 582 207 611 205.5C640 204 669 212 698 210.5C727 209 756 198 785.2 191.3C814.3 184.7 843.7 182.3 872.8 186C902 189.7 931 199.3 945.5 204.2L960 209L960 541L945.5 541C931 541 902 541 872.8 541C843.7 541 814.3 541 785.2 541C756 541 727 541 698 541C669 541 640 541 611 541C582 541 553 541 523.8 541C494.7 541 465.3 541 436.2 541C407 541 378 541 349 541C320 541 291 541 262 541C233 541 204 541 174.8 541C145.7 541 116.3 541 87.2 541C58 541 29 541 14.5 541L0 541Z" fill="#786c95"></path><path d="M0 214L14.5 223.7C29 233.3 58 252.7 87.2 250.3C116.3 248 145.7 224 174.8 219.3C204 214.7 233 229.3 262 239C291 248.7 320 253.3 349 253.2C378 253 407 248 436.2 250C465.3 252 494.7 261 523.8 255.7C553 250.3 582 230.7 611 219.2C640 207.7 669 204.3 698 209C727 213.7 756 226.3 785.2 238.5C814.3 250.7 843.7 262.3 872.8 257.7C902 253 931 232 945.5 221.5L960 211L960 541L945.5 541C931 541 902 541 872.8 541C843.7 541 814.3 541 785.2 541C756 541 727 541 698 541C669 541 640 541 611 541C582 541 553 541 523.8 541C494.7 541 465.3 541 436.2 541C407 541 378 541 349 541C320 541 291 541 262 541C233 541 204 541 174.8 541C145.7 541 116.3 541 87.2 541C58 541 29 541 14.5 541L0 541Z" fill="#716590"></path><path d="M0 254L14.5 251.7C29 249.3 58 244.7 87.2 248.3C116.3 252 145.7 264 174.8 273.5C204 283 233 290 262 294C291 298 320 299 349 291C378 283 407 266 436.2 265.2C465.3 264.3 494.7 279.7 523.8 283.2C553 286.7 582 278.3 611 270.2C640 262 669 254 698 256.3C727 258.7 756 271.3 785.2 270C814.3 268.7 843.7 253.3 872.8 246.8C902 240.3 931 242.7 945.5 243.8L960 245L960 541L945.5 541C931 541 902 541 872.8 541C843.7 541 814.3 541 785.2 541C756 541 727 541 698 541C669 541 640 541 611 541C582 541 553 541 523.8 541C494.7 541 465.3 541 436.2 541C407 541 378 541 349 541C320 541 291 541 262 541C233 541 204 541 174.8 541C145.7 541 116.3 541 87.2 541C58 541 29 541 14.5 541L0 541Z" fill="#6a5d8a"></path><path d="M0 263L14.5 265.7C29 268.3 58 273.7 87.2 275.7C116.3 277.7 145.7 276.3 174.8 283.8C204 291.3 233 307.7 262 314C291 320.3 320 316.7 349 311.2C378 305.7 407 298.3 436.2 299.2C465.3 300 494.7 309 523.8 311.2C553 313.3 582 308.7 611 307.3C640 306 669 308 698 305.7C727 303.3 756 296.7 785.2 293.3C814.3 290 843.7 290 872.8 296.3C902 302.7 931 315.3 945.5 321.7L960 328L960 541L945.5 541C931 541 902 541 872.8 541C843.7 541 814.3 541 785.2 541C756 541 727 541 698 541C669 541 640 541 611 541C582 541 553 541 523.8 541C494.7 541 465.3 541 436.2 541C407 541 378 541 349 541C320 541 291 541 262 541C233 541 204 541 174.8 541C145.7 541 116.3 541 87.2 541C58 541 29 541 14.5 541L0 541Z" fill="#635684"></path><path d="M0 356L14.5 347.3C29 338.7 58 321.3 87.2 320.8C116.3 320.3 145.7 336.7 174.8 335.7C204 334.7 233 316.3 262 313.3C291 310.3 320 322.7 349 330.8C378 339 407 343 436.2 343.7C465.3 344.3 494.7 341.7 523.8 341.5C553 341.3 582 343.7 611 344.3C640 345 669 344 698 341.3C727 338.7 756 334.3 785.2 328.5C814.3 322.7 843.7 315.3 872.8 315C902 314.7 931 321.3 945.5 324.7L960 328L960 541L945.5 541C931 541 902 541 872.8 541C843.7 541 814.3 541 785.2 541C756 541 727 541 698 541C669 541 640 541 611 541C582 541 553 541 523.8 541C494.7 541 465.3 541 436.2 541C407 541 378 541 349 541C320 541 291 541 262 541C233 541 204 541 174.8 541C145.7 541 116.3 541 87.2 541C58 541 29 541 14.5 541L0 541Z" fill="#5c4f7f"></path><path d="M0 376L14.5 374.5C29 373 58 370 87.2 364.3C116.3 358.7 145.7 350.3 174.8 345.7C204 341 233 340 262 347.2C291 354.3 320 369.7 349 368.3C378 367 407 349 436.2 341.8C465.3 334.7 494.7 338.3 523.8 338.7C553 339 582 336 611 338.3C640 340.7 669 348.3 698 350C727 351.7 756 347.3 785.2 349.2C814.3 351 843.7 359 872.8 359C902 359 931 351 945.5 347L960 343L960 541L945.5 541C931 541 902 541 872.8 541C843.7 541 814.3 541 785.2 541C756 541 727 541 698 541C669 541 640 541 611 541C582 541 553 541 523.8 541C494.7 541 465.3 541 436.2 541C407 541 378 541 349 541C320 541 291 541 262 541C233 541 204 541 174.8 541C145.7 541 116.3 541 87.2 541C58 541 29 541 14.5 541L0 541Z" fill="#564779"></path><path d="M0 414L14.5 413.2C29 412.3 58 410.7 87.2 407.7C116.3 404.7 145.7 400.3 174.8 399.3C204 398.3 233 400.7 262 396.7C291 392.7 320 382.3 349 377.5C378 372.7 407 373.3 436.2 376.2C465.3 379 494.7 384 523.8 385.2C553 386.3 582 383.7 611 380.7C640 377.7 669 374.3 698 375.7C727 377 756 383 785.2 385.2C814.3 387.3 843.7 385.7 872.8 386.5C902 387.3 931 390.7 945.5 392.3L960 394L960 541L945.5 541C931 541 902 541 872.8 541C843.7 541 814.3 541 785.2 541C756 541 727 541 698 541C669 541 640 541 611 541C582 541 553 541 523.8 541C494.7 541 465.3 541 436.2 541C407 541 378 541 349 541C320 541 291 541 262 541C233 541 204 541 174.8 541C145.7 541 116.3 541 87.2 541C58 541 29 541 14.5 541L0 541Z" fill="#4f4074"></path><path d="M0 436L14.5 430C29 424 58 412 87.2 410.7C116.3 409.3 145.7 418.7 174.8 418.2C204 417.7 233 407.3 262 406.5C291 405.7 320 414.3 349 417.7C378 421 407 419 436.2 421.7C465.3 424.3 494.7 431.7 523.8 432.5C553 433.3 582 427.7 611 423.2C640 418.7 669 415.3 698 417.7C727 420 756 428 785.2 424.7C814.3 421.3 843.7 406.7 872.8 405.8C902 405 931 418 945.5 424.5L960 431L960 541L945.5 541C931 541 902 541 872.8 541C843.7 541 814.3 541 785.2 541C756 541 727 541 698 541C669 541 640 541 611 541C582 541 553 541 523.8 541C494.7 541 465.3 541 436.2 541C407 541 378 541 349 541C320 541 291 541 262 541C233 541 204 541 174.8 541C145.7 541 116.3 541 87.2 541C58 541 29 541 14.5 541L0 541Z" fill="#48396e"></path><path d="M0 435L14.5 433.7C29 432.3 58 429.7 87.2 434.2C116.3 438.7 145.7 450.3 174.8 452.5C204 454.7 233 447.3 262 445.7C291 444 320 448 349 445.2C378 442.3 407 432.7 436.2 432.2C465.3 431.7 494.7 440.3 523.8 440.7C553 441 582 433 611 435.8C640 438.7 669 452.3 698 458.3C727 464.3 756 462.7 785.2 456.7C814.3 450.7 843.7 440.3 872.8 437C902 433.7 931 437.3 945.5 439.2L960 441L960 541L945.5 541C931 541 902 541 872.8 541C843.7 541 814.3 541 785.2 541C756 541 727 541 698 541C669 541 640 541 611 541C582 541 553 541 523.8 541C494.7 541 465.3 541 436.2 541C407 541 378 541 349 541C320 541 291 541 262 541C233 541 204 541 174.8 541C145.7 541 116.3 541 87.2 541C58 541 29 541 14.5 541L0 541Z" fill="#413269"></path><path d="M0 484L14.5 480.5C29 477 58 470 87.2 472C116.3 474 145.7 485 174.8 487.3C204 489.7 233 483.3 262 476.8C291 470.3 320 463.7 349 465.5C378 467.3 407 477.7 436.2 484.3C465.3 491 494.7 494 523.8 491.8C553 489.7 582 482.3 611 482.2C640 482 669 489 698 487.2C727 485.3 756 474.7 785.2 469.7C814.3 464.7 843.7 465.3 872.8 471C902 476.7 931 487.3 945.5 492.7L960 498L960 541L945.5 541C931 541 902 541 872.8 541C843.7 541 814.3 541 785.2 541C756 541 727 541 698 541C669 541 640 541 611 541C582 541 553 541 523.8 541C494.7 541 465.3 541 436.2 541C407 541 378 541 349 541C320 541 291 541 262 541C233 541 204 541 174.8 541C145.7 541 116.3 541 87.2 541C58 541 29 541 14.5 541L0 541Z" fill="#3b2b63"></path><path d="M0 501L14.5 503.7C29 506.3 58 511.7 87.2 511.3C116.3 511 145.7 505 174.8 502.2C204 499.3 233 499.7 262 500.5C291 501.3 320 502.7 349 502.7C378 502.7 407 501.3 436.2 504.3C465.3 507.3 494.7 514.7 523.8 516C553 517.3 582 512.7 611 508.7C640 504.7 669 501.3 698 498.8C727 496.3 756 494.7 785.2 496C814.3 497.3 843.7 501.7 872.8 506.8C902 512 931 518 945.5 521L960 524L960 541L945.5 541C931 541 902 541 872.8 541C843.7 541 814.3 541 785.2 541C756 541 727 541 698 541C669 541 640 541 611 541C582 541 553 541 523.8 541C494.7 541 465.3 541 436.2 541C407 541 378 541 349 541C320 541 291 541 262 541C233 541 204 541 174.8 541C145.7 541 116.3 541 87.2 541C58 541 29 541 14.5 541L0 541Z" fill="#34245e"></path></svg>