<svg id="visual" viewBox="0 0 960 540" width="960" height="540" xmlns="http://www.w3.org/2000/svg"
  xmlns:xlink="http://www.w3.org/1999/xlink" version="1.1">
  <rect x="0" y="0" width="960" height="540" fill="#1C1B1F"></rect>
  <g fill="#734bd0">
    <circle r="54" cx="353" cy="79"></circle>
    <circle r="14" cx="210" cy="418"></circle>
    <circle r="40" cx="233" cy="255"></circle>
    <circle r="48" cx="810" cy="265"></circle>
    <circle r="49" cx="873" cy="58"></circle>
    <circle r="14" cx="490" cy="270"></circle>
    <circle r="40" cx="496" cy="423"></circle>
    <circle r="40" cx="705" cy="68"></circle>
    <circle r="37" cx="627" cy="357"></circle>
    <circle r="47" cx="875" cy="466"></circle>
    <circle r="31" cx="472" cy="112"></circle>
    <circle r="45" cx="904" cy="172"></circle>
    <circle r="43" cx="599" cy="463"></circle>
    <circle r="47" cx="204" cy="151"></circle>
    <circle r="14" cx="695" cy="258"></circle>
    <circle r="18" cx="54" cy="447"></circle>
    <circle r="17" cx="729" cy="389"></circle>
    <circle r="49" cx="113" cy="88"></circle>
    <circle r="31" cx="112" cy="214"></circle>
    <circle r="42" cx="597" cy="210"></circle>
  </g>
</svg>
